<svg width="100" height="32" viewBox="0 0 100 32" fill="none" xmlns="http://www.w3.org/2000/svg">
<g clip-path="url(#clip0_541_8)">
<path d="M30.4 15.7999C30.1 -0.400088 8.6 -6.40009 0.3 8.69991C0.7 8.99991 1.2 9.39991 1.5 9.59991C0.9 10.8999 0.4 12.2999 0.2 13.5999C0.1 14.4999 0 15.3999 0 16.3999C0 24.7999 6.8 31.5999 15.2 31.5999C23.6 31.5999 30.4 24.7999 30.4 16.3999C30.4 16.1999 30.4 15.9999 30.4 15.7999ZM3.8 18.4999C3.6 20.0999 3.7 20.6999 3.7 20.8999L3.3 20.9999C3.2 20.6999 2.8 19.7999 2.7 18.4999C2.3 13.5999 5.6 9.19991 10.7 8.39991C15.4 7.69991 19.8 10.5999 20.9 14.6999L20.5 14.7999C20.4 14.6999 20.2 14.3999 19.5 13.5999C13.9 7.89991 5 10.4999 3.8 18.4999ZM18.2 21.1999C17.4 22.2999 16.2 22.9999 14.8 22.9999C12.5 22.9999 10.6 21.0999 10.6 18.7999C10.6 16.5999 12.3 14.7999 14.5 14.6999C15.8 14.5999 17.1 15.3999 17.7 16.4999C18.3 17.7999 18.1 19.2999 17.1 20.3999C17.5 20.6999 17.9 20.9999 18.2 21.1999ZM26.9 21.3999C24.7 26.3999 20.2 28.9999 15.4 28.8999C6.1 28.3999 3.4 17.7999 9.6 13.8999L9.9 14.1999C9.8 14.2999 9.4 14.5999 8.9 15.7999C8.2 17.1999 8 18.4999 8.1 19.3999C8.6 26.8999 19 28.3999 22.6 20.9999C27.1 10.7999 15 0.499912 4.2 8.39991L4 8.09991C6.8 3.69991 12.3 1.69991 17.6 2.99991C25.7 5.09991 30.1 13.4999 26.9 21.3999Z" fill="white"/>
<path d="M45.2001 9.80005V16.8001C45.2001 19.6001 43.5001 21.7001 40.4001 21.7001C37.3001 21.7001 35.6001 19.6001 35.6001 16.8001V9.80005H38.1001V16.6001C38.1001 18.3001 38.9001 19.3001 40.4001 19.3001C41.9001 19.3001 42.7001 18.3001 42.7001 16.6001V9.80005H45.2001ZM54.7001 18.2001C54.7001 20.2001 53.1001 21.7001 50.5001 21.7001H46.4001V9.90005H50.3001C52.6001 9.90005 54.1001 11.0001 54.1001 12.7001C54.1001 14.0001 53.5001 14.8001 52.6001 15.2001C53.8001 15.7001 54.7001 16.6001 54.7001 18.2001ZM49.0001 12.2001V14.7001H50.3001C51.1001 14.7001 51.6001 14.2001 51.6001 13.5001C51.6001 12.8001 51.1001 12.3001 50.3001 12.3001L49.0001 12.2001ZM50.4001 19.4001C51.5001 19.4001 52.1001 18.9001 52.1001 17.9001C52.1001 16.9001 51.5001 16.4001 50.4001 16.4001H49.0001V19.3001L50.4001 19.4001ZM55.7001 9.90005H58.2001V21.6001H55.7001V9.90005ZM64.3001 14.7001C66.3001 15.4001 67.3001 16.3001 67.3001 18.1001C67.3001 20.5001 65.4001 21.9001 63.2001 21.9001C61.2001 21.9001 59.6001 21.0001 59.0001 19.3001L61.0001 17.8001C61.4001 18.9001 62.3001 19.5001 63.3001 19.5001C64.1001 19.5001 64.7001 19.0001 64.7001 18.3001C64.7001 17.6001 64.2001 17.2001 62.6001 16.6001C60.8001 15.9001 59.4001 15.0001 59.4001 13.1001C59.4001 11.2001 61.0001 9.80005 63.2001 9.80005C65.0001 9.80005 66.4001 10.5001 67.0001 11.9001L65.0001 13.3001C64.6001 12.4001 64.0001 11.9001 63.1001 11.9001C62.3001 11.9001 61.8001 12.3001 61.8001 12.9001C61.9001 13.6001 62.6001 14.1001 64.3001 14.7001ZM80.0001 15.8001C80.0001 19.2001 77.5001 21.8001 74.0001 21.8001C70.4001 21.8001 68.0001 19.2001 68.0001 16.2001C68.0001 14.2001 68.8001 12.7001 69.9001 11.8001L69.5001 11.4001C70.4001 10.5001 72.0001 9.80005 73.9001 9.80005C77.5001 9.70005 80.0001 12.4001 80.0001 15.8001ZM77.4001 15.8001C77.4001 13.7001 76.1001 12.2001 74.0001 12.2001C72.8001 12.2001 71.9001 12.7001 71.4001 13.2001L71.8001 13.6001C71.2001 14.1001 70.6001 14.8001 70.6001 16.1001C70.6001 17.9001 71.9001 19.4001 74.0001 19.4001C76.1001 19.4001 77.4001 17.9001 77.4001 15.8001ZM83.6001 12.4001V15.1001H88.6001V17.0001H83.6001V21.6001H81.0001V9.90005H89.0001V12.3001H83.6001V12.4001ZM99.2001 12.4001H95.9001V21.7001H93.4001V12.4001H90.0001V9.90005H99.1001V12.4001H99.2001Z" fill="white"/>
</g>
<defs>
<clipPath id="clip0_541_8">
<rect width="99.2" height="31.6" fill="white"/>
</clipPath>
</defs>
</svg>
